#!OML:ASF E:/inclinewalkrobotboard/Project1/Captureday1/Session1/subject1.ASF
:FULLY-SPECIFIED
:DEGREES
138
root 0 0 0 1.0537270002949084 -3.6780686019796995 1.863163955797602
lowerback 11.924819856498992 0.8572954871216443 -0.05853062084238833
upperback -4.224692102160971 1.087063928529455 -0.5568352977357962
thorax -11.298485646761543 0.4963334223605104 -0.8004876385542616
lowerneck -5.6691944493513855 1.4463810257653664 4.565582238335904
upperneck 18.082119792176044 2.8826341329733025 -8.318329891999582
head 6.589159030888715 1.0477216362636446 -3.2214766059803734
rclavicle -8.966613583615036E-16 -3.4516472709532847E-16
rhumerus 20.160095116575015 14.709281608693075 -48.13945261954656
rradius 72.54494831995623
rwrist 26.737451703096642
rhand -34.75676148883822 -57.39464835858824
rfingers 7.125020000000038
rthumb -7.918011052460611 -87.30967814174541
lclavicle 9.035172630347211E-16 -1.7480439799393251E-15
lhumerus 20.85142258683436 -12.750842282036166 45.28117881950807
lradius 69.94584179773761
lwrist -22.275922298072775
lhand -44.7747521531404 -69.72560763137011
lfingers 7.1250200000000286
lthumb -17.566010454185353 -40.527631646967166
rfemur -24.894498086009392 -2.2122603354433514 17.208109882607864
rtibia 54.04916881701814
rfoot -29.079201309474882 -16.733412508167117
rtoes -17.672176858976457
lfemur -26.67489793341535 2.405484589080344 -18.294934198923098
ltibia 54.16309600096145
lfoot -31.064187247915736 -3.5263078057502404
ltoes -19.63643016757153
139
root 0 0 0 1.0530406393050749 -3.679362041753895 1.862965243206454
lowerback 11.924767322289698 0.8571639389223851 -0.058351370054201185
upperback -4.22432250270373 1.0869375131945642 -0.5565764325071764
thorax -11.298044750986177 0.4962690373756525 -0.8002780681099328
lowerneck -5.667138359491696 1.44614306893931 4.565751943439327
upperneck 18.08093181567278 2.882415910198719 -8.319121706480349
head 6.5884243541373255 1.047633122569624 -3.2217721554684173
rclavicle -8.97537481446972E-16 -3.428457279419E-16
rhumerus 20.160411509623167 14.710153173621565 -48.140058672137215
rradius 72.54527917678122
rwrist 26.73692391701043
rhand -34.75626425685106 -57.39363446691253
rfingers 7.125020000000038
rthumb -7.91755292041235 -87.30834910124845
lclavicle 9.010048548717288E-16 -1.7493236754698542E-15
lhumerus 20.851313881994116 -12.751792706006004 45.281786612166734
lradius 69.9461757036766
lwrist -22.27539614073126
lhand -44.77484379663705 -69.72460336531604
lfingers 7.125020000000029
lthumb -17.56623285137416 -40.52640240122814
rfemur -24.89440397330606 -2.2122828861876864 17.208334626910343
rtibia 54.04863496372236
rfoot -29.07946840895623 -16.732932438793526
rtoes -17.672100572757987
lfemur -26.67696515597281 2.4058410972445055 -18.29476843476847
ltibia 54.165464860232376
lfoot -31.061413130631067 -3.528543573685453
ltoes -19.632140558423025
140
root 0 0 0 1.0528102624862359 -3.679786488876197 1.8629083708038716
lowerback 11.924763231676655 0.8571224964220022 -0.05825701874430983
upperback -4.224177114283785 1.0869014761497873 -0.5564886344547533
thorax -11.297875072746747 0.49625005022394464 -0.8002258533302993
lowerneck -5.666323590791276 1.4460261302841557 4.565833904803338
upperneck 18.080429032273944 2.882289273871856 -8.319450748030029
head 6.5881237763196845 1.0475819360289846 -3.221901043397976
rclavicle -8.958297216428987E-16 -3.439476180121164E-16
rhumerus 20.16052495893799 14.710305929751314 -48.13986965641448
rradius 72.54532008159757
rwrist 26.73692588492814
rhand -34.755790359305806 -57.392989004842946
rfingers 7.125020000000038
rthumb -7.917095629487835 -87.30774741746689
lclavicle 9.033727279729277E-16 -1.7503017724887198E-15
lhumerus 20.851543418428165 -12.75211037606325 45.281282478848794
lradius 69.94645205300327
lwrist -22.275576198465068
lhand -44.7746552893167 -69.72361022569936
lfingers 7.125020000000029
lthumb -17.566057602231496 -40.52537578851462
rfemur -24.894411489018502 -2.2122836009399633 17.208376674081215
rtibia 54.048765918830746
rfoot -29.07946856832577 -16.73290131802062
rtoes -17.67190737467678
lfemur -26.676921369770355 2.405940446177754 -18.29474715408658
ltibia 54.16614818303643
lfoot -31.06099079272925 -3.5287529490337484
ltoes -19.63185172593693
141
root 0 0 0 1.0526678908630291 -3.6800455429464427 1.8628755802915116
lowerback 11.924760566709255 0.8570973556410022 -0.058197177529064725
upperback -4.224086729512878 1.086879795643543 -0.5564353510506872
thorax -11.297769324389101 0.49623861972925193 -0.8001954538068896
lowerneck -5.665817012117802 1.4459533816872665 4.565889293738534
upperneck 18.080115746197272 2.8822104861367235 -8.319660207380208
head 6.587936684852422 1.0475500075824504 -3.2219836205707644
rclavicle -8.950987916968204E-16 -3.4387600876545685E-16
rhumerus 20.160704949372647 14.710518638235534 -48.139793678989044
rradius 72.5454426670996
rwrist 26.73686784714303
rhand -34.755469123490215 -57.392541676363884
rfingers 7.125020000000038
rthumb -7.916787858566089 -87.30729858478374
lclavicle 9.041964548943946E-16 -1.750214349656614E-15
lhumerus 20.851687099299138 -12.75237276466359 45.28104291419861
lradius 69.94663390238748
lwrist -22.275604140393046
lhand -44.774536784601786 -69.72285207369167
lfingers 7.125020000000029
lthumb -17.565941866010384 -40.52460752062489
rfemur -24.894426576937338 -2.212288703663499 17.208388210611094
rtibia 54.04879014138102
rfoot -29.079488178173047 -16.73289271992992
rtoes -17.67187893159655
lfemur -26.67676225068934 2.4059766426677447 -18.294731475838905
ltibia 54.16615076385196
lfoot -31.06089675071579 -3.528718388118981
ltoes -19.632092200353732
